<svg xmlns="http://www.w3.org/2000/svg" width="1100" height="970" viewBox="0 0 1100 970" role="img" aria-labelledby="title desc">
  <title id="title">GPT-RAG modular architecture layers</title>
  <desc id="desc">Layered architecture view showing required baseline services, recommended support services, and optional add-ons for Zero Trust, operations, public ingress, existing platform integration, and scenario capabilities.</desc>
  <defs>
    <style>
      .title { font: 700 30px 'Segoe UI', Arial, sans-serif; fill: #14345f; }
      .subtitle { font: 400 17px 'Segoe UI', Arial, sans-serif; fill: #4c607a; }
      .layer-title { font: 700 21px 'Segoe UI', Arial, sans-serif; fill: #14345f; }
      .label { font: 700 15px 'Segoe UI', Arial, sans-serif; fill: #ffffff; }
      .chip { font: 700 15px 'Segoe UI', Arial, sans-serif; fill: #15345b; }
      .box-text { font: 400 15px 'Segoe UI', Arial, sans-serif; fill: #485a72; }
      .legend { font: 600 15px 'Segoe UI', Arial, sans-serif; fill: #33465f; }
    </style>
  </defs>

  <rect width="1100" height="970" fill="#f7faff"/>
  <text x="48" y="58" class="title">Modular architecture layers</text>
  <text x="48" y="88" class="subtitle">Start with the baseline, then add layers only when the customer scenario requires them.</text>

  <rect x="50" y="118" width="22" height="16" rx="4" fill="#3f7dc7"/>
  <text x="84" y="132" class="legend">Required baseline</text>
  <rect x="250" y="118" width="22" height="16" rx="4" fill="#4a9f6f"/>
  <text x="284" y="132" class="legend">Recommended/default support</text>
  <rect x="548" y="118" width="22" height="16" rx="4" fill="#7b5fc7"/>
  <text x="582" y="132" class="legend">Optional security/integration</text>
  <rect x="838" y="118" width="22" height="16" rx="4" fill="#d9822b"/>
  <text x="872" y="132" class="legend">Optional capability/cost</text>

  <rect x="60" y="164" width="980" height="128" rx="22" fill="#eaf3ff" stroke="#3f7dc7" stroke-width="2.5"/>
  <rect x="86" y="190" width="138" height="34" rx="17" fill="#3f7dc7"/>
  <text x="118" y="213" class="label">Required</text>
  <text x="252" y="213" class="layer-title">Basic GPT-RAG runtime and data path</text>
  <rect x="242" y="242" width="92" height="36" rx="11" fill="#ffffff" stroke="#87aee7"/>
  <text x="257" y="265" class="chip">Frontend</text>
  <rect x="346" y="242" width="124" height="36" rx="11" fill="#ffffff" stroke="#87aee7"/>
  <text x="366" y="265" class="chip">Orchestrator</text>
  <rect x="482" y="242" width="102" height="36" rx="11" fill="#ffffff" stroke="#87aee7"/>
  <text x="503" y="265" class="chip">Ingestion</text>
  <rect x="596" y="242" width="102" height="36" rx="11" fill="#ffffff" stroke="#87aee7"/>
  <text x="619" y="265" class="chip">AI Search</text>
  <rect x="710" y="242" width="108" height="36" rx="11" fill="#ffffff" stroke="#87aee7"/>
  <text x="730" y="265" class="chip">AI Foundry</text>
  <rect x="830" y="242" width="90" height="36" rx="11" fill="#ffffff" stroke="#87aee7"/>
  <text x="851" y="265" class="chip">Storage</text>
  <rect x="932" y="242" width="100" height="36" rx="11" fill="#ffffff" stroke="#87aee7"/>
  <text x="950" y="265" class="chip">Cosmos DB</text>

  <rect x="60" y="322" width="980" height="116" rx="22" fill="#eef8f2" stroke="#4a9f6f" stroke-width="2.5"/>
  <rect x="86" y="348" width="172" height="34" rx="17" fill="#4a9f6f"/>
  <text x="111" y="371" class="label">Default support</text>
  <text x="286" y="371" class="layer-title">Configuration, security, deployment, and observability</text>
  <text x="286" y="402" class="box-text">App Configuration, Key Vault, managed identities/RBAC, Container Apps, Container Registry,</text>
  <text x="286" y="425" class="box-text">Log Analytics, and Application Insights.</text>

  <rect x="60" y="468" width="980" height="106" rx="22" fill="#f3efff" stroke="#7b5fc7" stroke-width="2.5"/>
  <rect x="86" y="494" width="138" height="34" rx="17" fill="#7b5fc7"/>
  <text x="119" y="517" class="label">Optional</text>
  <text x="252" y="517" class="layer-title">Zero Trust / network isolation</text>
  <text x="252" y="558" class="box-text">VNet, subnets, private endpoints, Private DNS, NSGs, Azure Firewall, and private service surfaces.</text>

  <rect x="60" y="604" width="980" height="104" rx="22" fill="#fff7ec" stroke="#d9822b" stroke-width="2.5"/>
  <rect x="86" y="630" width="138" height="34" rx="17" fill="#d9822b"/>
  <text x="119" y="653" class="label">Optional</text>
  <text x="252" y="653" class="layer-title">Operations and private build path</text>
  <text x="252" y="684" class="box-text">Jumpbox, Bastion, NAT Gateway, VM bootstrap, and ACR Task Agent Pool for private builds.</text>

  <rect x="60" y="738" width="980" height="104" rx="22" fill="#fff7ec" stroke="#d9822b" stroke-width="2.5"/>
  <rect x="86" y="764" width="138" height="34" rx="17" fill="#d9822b"/>
  <text x="119" y="787" class="label">Optional</text>
  <text x="252" y="787" class="layer-title">Ingress and existing platform</text>
  <text x="252" y="818" class="box-text">Application Gateway WAF, existing VNet/DNS/observability, and hub-spoke AI Landing Zone integration.</text>

  <rect x="60" y="872" width="980" height="76" rx="22" fill="#fff4f0" stroke="#d66f53" stroke-width="2.5"/>
  <rect x="86" y="893" width="178" height="34" rx="17" fill="#d66f53"/>
  <text x="111" y="916" class="label">Scenario add-ons</text>
  <text x="286" y="904" class="box-text">Voice, Bing grounding, agentic retrieval, NL2SQL/PostgreSQL, MCP tool hosting,</text>
  <text x="286" y="927" class="box-text">and other use-case capabilities.</text>
</svg>
